<mxfile host="app.diagrams.net" modified="2023-10-12T22:57:25.189Z" agent="Mozilla/5.0 (Windows NT 10.0; Win64; x64) AppleWebKit/537.36 (KHTML, like Gecko) Chrome/118.0.0.0 Safari/537.36" etag="F_R9U4cnnCS_Kh-qmO4v" version="22.0.0" type="github">
  <diagram name="Page-1" id="kvhpsFtnn9bkHWutWsCZ">
    <mxGraphModel dx="1413" dy="998" grid="1" gridSize="10" guides="1" tooltips="1" connect="1" arrows="1" fold="1" page="1" pageScale="1" pageWidth="827" pageHeight="1169" math="0" shadow="0">
      <root>
        <mxCell id="0" />
        <mxCell id="1" parent="0" />
        <mxCell id="QOypBCcUVgNBI2c4SRFX-8" style="edgeStyle=orthogonalEdgeStyle;rounded=0;orthogonalLoop=1;jettySize=auto;html=1;entryX=0;entryY=0.5;entryDx=0;entryDy=0;labelBackgroundColor=none;strokeColor=#0B4D6A;fontColor=default;" edge="1" parent="1" source="QOypBCcUVgNBI2c4SRFX-1" target="QOypBCcUVgNBI2c4SRFX-2">
          <mxGeometry relative="1" as="geometry" />
        </mxCell>
        <mxCell id="QOypBCcUVgNBI2c4SRFX-1" value="" style="ellipse;whiteSpace=wrap;html=1;aspect=fixed;labelBackgroundColor=none;fillColor=#09555B;strokeColor=#BAC8D3;fontColor=#EEEEEE;" vertex="1" parent="1">
          <mxGeometry x="10" y="210" width="80" height="80" as="geometry" />
        </mxCell>
        <mxCell id="QOypBCcUVgNBI2c4SRFX-12" style="edgeStyle=orthogonalEdgeStyle;rounded=0;orthogonalLoop=1;jettySize=auto;html=1;entryX=0.5;entryY=0;entryDx=0;entryDy=0;labelBackgroundColor=none;strokeColor=#0B4D6A;fontColor=default;" edge="1" parent="1" source="QOypBCcUVgNBI2c4SRFX-2" target="QOypBCcUVgNBI2c4SRFX-11">
          <mxGeometry relative="1" as="geometry" />
        </mxCell>
        <mxCell id="QOypBCcUVgNBI2c4SRFX-2" value="receive work order" style="rounded=1;whiteSpace=wrap;html=1;labelBackgroundColor=none;fillColor=#09555B;strokeColor=#BAC8D3;fontColor=#EEEEEE;" vertex="1" parent="1">
          <mxGeometry x="140" y="220" width="120" height="60" as="geometry" />
        </mxCell>
        <mxCell id="QOypBCcUVgNBI2c4SRFX-3" value="produce invoice" style="rounded=1;whiteSpace=wrap;html=1;labelBackgroundColor=none;fillColor=#09555B;strokeColor=#BAC8D3;fontColor=#EEEEEE;" vertex="1" parent="1">
          <mxGeometry x="420" y="250" width="120" height="60" as="geometry" />
        </mxCell>
        <mxCell id="QOypBCcUVgNBI2c4SRFX-21" style="edgeStyle=orthogonalEdgeStyle;rounded=0;orthogonalLoop=1;jettySize=auto;html=1;entryX=0;entryY=0.75;entryDx=0;entryDy=0;labelBackgroundColor=none;strokeColor=#0B4D6A;fontColor=default;" edge="1" parent="1" source="QOypBCcUVgNBI2c4SRFX-4" target="QOypBCcUVgNBI2c4SRFX-20">
          <mxGeometry relative="1" as="geometry" />
        </mxCell>
        <mxCell id="QOypBCcUVgNBI2c4SRFX-4" value="delivery note" style="rounded=1;whiteSpace=wrap;html=1;labelBackgroundColor=none;fillColor=#09555B;strokeColor=#BAC8D3;fontColor=#EEEEEE;" vertex="1" parent="1">
          <mxGeometry x="420" y="510" width="120" height="60" as="geometry" />
        </mxCell>
        <mxCell id="QOypBCcUVgNBI2c4SRFX-5" value="send directly" style="rounded=1;whiteSpace=wrap;html=1;labelBackgroundColor=none;fillColor=#09555B;strokeColor=#BAC8D3;fontColor=#EEEEEE;" vertex="1" parent="1">
          <mxGeometry x="710" y="220" width="120" height="60" as="geometry" />
        </mxCell>
        <mxCell id="QOypBCcUVgNBI2c4SRFX-7" value="send to warehouse" style="rounded=1;whiteSpace=wrap;html=1;labelBackgroundColor=none;fillColor=#09555B;strokeColor=#BAC8D3;fontColor=#EEEEEE;" vertex="1" parent="1">
          <mxGeometry x="710" y="370" width="120" height="60" as="geometry" />
        </mxCell>
        <mxCell id="QOypBCcUVgNBI2c4SRFX-13" style="edgeStyle=orthogonalEdgeStyle;rounded=0;orthogonalLoop=1;jettySize=auto;html=1;entryX=0;entryY=0.5;entryDx=0;entryDy=0;labelBackgroundColor=none;strokeColor=#0B4D6A;fontColor=default;" edge="1" parent="1" source="QOypBCcUVgNBI2c4SRFX-11" target="QOypBCcUVgNBI2c4SRFX-3">
          <mxGeometry relative="1" as="geometry" />
        </mxCell>
        <mxCell id="QOypBCcUVgNBI2c4SRFX-14" style="edgeStyle=orthogonalEdgeStyle;rounded=0;orthogonalLoop=1;jettySize=auto;html=1;entryX=0;entryY=0.5;entryDx=0;entryDy=0;labelBackgroundColor=none;strokeColor=#0B4D6A;fontColor=default;" edge="1" parent="1" source="QOypBCcUVgNBI2c4SRFX-11" target="QOypBCcUVgNBI2c4SRFX-4">
          <mxGeometry relative="1" as="geometry" />
        </mxCell>
        <mxCell id="QOypBCcUVgNBI2c4SRFX-11" value="&lt;font style=&quot;font-size: 100px;&quot;&gt;+&lt;/font&gt;" style="rhombus;whiteSpace=wrap;html=1;labelBackgroundColor=none;fillColor=#09555B;strokeColor=#BAC8D3;fontColor=#EEEEEE;" vertex="1" parent="1">
          <mxGeometry x="290" y="290" width="80" height="80" as="geometry" />
        </mxCell>
        <mxCell id="QOypBCcUVgNBI2c4SRFX-18" style="edgeStyle=orthogonalEdgeStyle;rounded=0;orthogonalLoop=1;jettySize=auto;html=1;entryX=0;entryY=0.5;entryDx=0;entryDy=0;labelBackgroundColor=none;strokeColor=#0B4D6A;fontColor=default;" edge="1" parent="1" source="QOypBCcUVgNBI2c4SRFX-16" target="QOypBCcUVgNBI2c4SRFX-5">
          <mxGeometry relative="1" as="geometry" />
        </mxCell>
        <mxCell id="QOypBCcUVgNBI2c4SRFX-19" style="edgeStyle=orthogonalEdgeStyle;rounded=0;orthogonalLoop=1;jettySize=auto;html=1;entryX=0;entryY=0.5;entryDx=0;entryDy=0;labelBackgroundColor=none;strokeColor=#0B4D6A;fontColor=default;" edge="1" parent="1" source="QOypBCcUVgNBI2c4SRFX-16" target="QOypBCcUVgNBI2c4SRFX-7">
          <mxGeometry relative="1" as="geometry">
            <mxPoint x="680" y="410" as="targetPoint" />
          </mxGeometry>
        </mxCell>
        <mxCell id="QOypBCcUVgNBI2c4SRFX-16" value="&lt;div style=&quot;&quot;&gt;&lt;span style=&quot;font-size: 100px; background-color: initial;&quot;&gt;*&lt;/span&gt;&lt;/div&gt;" style="rhombus;whiteSpace=wrap;html=1;fillColor=#7ebfc4;align=center;labelBackgroundColor=none;strokeColor=#BAC8D3;fontColor=#EEEEEE;" vertex="1" parent="1">
          <mxGeometry x="580" y="250" width="80" height="80" as="geometry" />
        </mxCell>
        <mxCell id="QOypBCcUVgNBI2c4SRFX-17" style="edgeStyle=orthogonalEdgeStyle;rounded=0;orthogonalLoop=1;jettySize=auto;html=1;entryX=0.061;entryY=0.593;entryDx=0;entryDy=0;entryPerimeter=0;labelBackgroundColor=none;strokeColor=#0B4D6A;fontColor=default;" edge="1" parent="1" source="QOypBCcUVgNBI2c4SRFX-3" target="QOypBCcUVgNBI2c4SRFX-16">
          <mxGeometry relative="1" as="geometry" />
        </mxCell>
        <mxCell id="QOypBCcUVgNBI2c4SRFX-20" value="send to warehouse" style="rounded=1;whiteSpace=wrap;html=1;labelBackgroundColor=none;fillColor=#09555B;strokeColor=#BAC8D3;fontColor=#EEEEEE;" vertex="1" parent="1">
          <mxGeometry x="707" y="510" width="120" height="60" as="geometry" />
        </mxCell>
        <mxCell id="QOypBCcUVgNBI2c4SRFX-23" value="&lt;font style=&quot;font-size: 100px;&quot;&gt;+&lt;/font&gt;" style="rhombus;whiteSpace=wrap;html=1;labelBackgroundColor=none;fillColor=#09555B;strokeColor=#BAC8D3;fontColor=#EEEEEE;" vertex="1" parent="1">
          <mxGeometry x="1130" y="340" width="80" height="80" as="geometry" />
        </mxCell>
        <mxCell id="QOypBCcUVgNBI2c4SRFX-25" style="edgeStyle=orthogonalEdgeStyle;rounded=0;orthogonalLoop=1;jettySize=auto;html=1;entryX=0.311;entryY=0.89;entryDx=0;entryDy=0;entryPerimeter=0;labelBackgroundColor=none;strokeColor=#0B4D6A;fontColor=default;" edge="1" parent="1" source="QOypBCcUVgNBI2c4SRFX-20" target="QOypBCcUVgNBI2c4SRFX-23">
          <mxGeometry relative="1" as="geometry" />
        </mxCell>
        <mxCell id="QOypBCcUVgNBI2c4SRFX-29" style="edgeStyle=orthogonalEdgeStyle;rounded=0;orthogonalLoop=1;jettySize=auto;html=1;entryX=0;entryY=0;entryDx=0;entryDy=0;labelBackgroundColor=none;strokeColor=#0B4D6A;fontColor=default;" edge="1" parent="1" source="QOypBCcUVgNBI2c4SRFX-26" target="QOypBCcUVgNBI2c4SRFX-23">
          <mxGeometry relative="1" as="geometry" />
        </mxCell>
        <mxCell id="QOypBCcUVgNBI2c4SRFX-26" value="&lt;div style=&quot;&quot;&gt;&lt;span style=&quot;font-size: 100px; background-color: initial;&quot;&gt;*&lt;/span&gt;&lt;/div&gt;" style="rhombus;whiteSpace=wrap;html=1;fillColor=#7ebfc4;align=center;labelBackgroundColor=none;strokeColor=#BAC8D3;fontColor=#EEEEEE;" vertex="1" parent="1">
          <mxGeometry x="950" y="250" width="80" height="80" as="geometry" />
        </mxCell>
        <mxCell id="QOypBCcUVgNBI2c4SRFX-27" style="edgeStyle=orthogonalEdgeStyle;rounded=0;orthogonalLoop=1;jettySize=auto;html=1;entryX=0.181;entryY=0.343;entryDx=0;entryDy=0;entryPerimeter=0;labelBackgroundColor=none;strokeColor=#0B4D6A;fontColor=default;" edge="1" parent="1" source="QOypBCcUVgNBI2c4SRFX-5" target="QOypBCcUVgNBI2c4SRFX-26">
          <mxGeometry relative="1" as="geometry" />
        </mxCell>
        <mxCell id="QOypBCcUVgNBI2c4SRFX-28" style="edgeStyle=orthogonalEdgeStyle;rounded=0;orthogonalLoop=1;jettySize=auto;html=1;labelBackgroundColor=none;strokeColor=#0B4D6A;fontColor=default;" edge="1" parent="1" source="QOypBCcUVgNBI2c4SRFX-7">
          <mxGeometry relative="1" as="geometry">
            <mxPoint x="964" y="313" as="targetPoint" />
          </mxGeometry>
        </mxCell>
        <mxCell id="QOypBCcUVgNBI2c4SRFX-31" value="" style="ellipse;whiteSpace=wrap;html=1;aspect=fixed;labelBackgroundColor=none;fillColor=#09555B;strokeColor=#BAC8D3;fontColor=#EEEEEE;" vertex="1" parent="1">
          <mxGeometry x="1335" y="360" width="70" height="70" as="geometry" />
        </mxCell>
        <mxCell id="QOypBCcUVgNBI2c4SRFX-32" value="" style="ellipse;whiteSpace=wrap;html=1;aspect=fixed;labelBackgroundColor=none;fillColor=#09555B;strokeColor=#BAC8D3;fontColor=#EEEEEE;" vertex="1" parent="1">
          <mxGeometry x="1345" y="370" width="50" height="50" as="geometry" />
        </mxCell>
        <mxCell id="QOypBCcUVgNBI2c4SRFX-33" style="edgeStyle=orthogonalEdgeStyle;rounded=0;orthogonalLoop=1;jettySize=auto;html=1;entryX=0.033;entryY=0.3;entryDx=0;entryDy=0;entryPerimeter=0;labelBackgroundColor=none;strokeColor=#0B4D6A;fontColor=default;" edge="1" parent="1" source="QOypBCcUVgNBI2c4SRFX-23" target="QOypBCcUVgNBI2c4SRFX-31">
          <mxGeometry relative="1" as="geometry" />
        </mxCell>
      </root>
    </mxGraphModel>
  </diagram>
</mxfile>
